<mxfile host="Electron" modified="2024-03-29T02:02:07.179Z" agent="Mozilla/5.0 (Windows NT 10.0; Win64; x64) AppleWebKit/537.36 (KHTML, like Gecko) draw.io/24.1.0 Chrome/120.0.6099.109 Electron/28.1.0 Safari/537.36" etag="3AsO4Fwt3Az__-iRAKci" version="24.1.0" type="device">
  <diagram name="Página-1" id="ujS-5xGGQtsMkcuK-KQj">
    <mxGraphModel dx="1420" dy="830" grid="1" gridSize="10" guides="1" tooltips="1" connect="1" arrows="1" fold="1" page="1" pageScale="1" pageWidth="827" pageHeight="1169" background="#CCE5FF" math="0" shadow="0">
      <root>
        <mxCell id="0" />
        <mxCell id="1" parent="0" />
        <mxCell id="SvNPEjNwzwdlMMC8N83Y-1" value="&lt;b style=&quot;font-size: 16px;&quot;&gt;&lt;font style=&quot;font-size: 16px;&quot; color=&quot;#000000&quot; face=&quot;Comic Sans MS&quot;&gt;9&lt;br&gt;Hacer un programa para ingresar tres números y listar el máximo de ellos.&lt;/font&gt;&lt;/b&gt;" style="text;whiteSpace=wrap;html=1;fontFamily=Architects Daughter;fontSource=https%3A%2F%2Ffonts.googleapis.com%2Fcss%3Ffamily%3DArchitects%2BDaughter;" vertex="1" parent="1">
          <mxGeometry x="130" y="20" width="490" height="80" as="geometry" />
        </mxCell>
        <mxCell id="SvNPEjNwzwdlMMC8N83Y-79" value="" style="group" vertex="1" connectable="0" parent="1">
          <mxGeometry x="160" y="120" width="540" height="540" as="geometry" />
        </mxCell>
        <mxCell id="SvNPEjNwzwdlMMC8N83Y-2" value="" style="strokeWidth=2;html=1;shape=mxgraph.flowchart.start_2;whiteSpace=wrap;rounded=0;labelBackgroundColor=none;strokeColor=#000000;align=center;verticalAlign=middle;fontFamily=Helvetica;fontSize=12;fontColor=default;fillColor=#d5e8d4;aspect=fixed;container=0;" vertex="1" parent="SvNPEjNwzwdlMMC8N83Y-79">
          <mxGeometry x="180" width="40" height="40" as="geometry" />
        </mxCell>
        <mxCell id="SvNPEjNwzwdlMMC8N83Y-7" value="&lt;b&gt;&lt;font style=&quot;font-size: 17px;&quot; color=&quot;#000000&quot; face=&quot;Comic Sans MS&quot;&gt;I&lt;/font&gt;&lt;/b&gt;" style="text;strokeColor=none;align=center;fillColor=none;html=1;verticalAlign=middle;whiteSpace=wrap;rounded=0;fontFamily=Architects Daughter;fontSource=https%3A%2F%2Ffonts.googleapis.com%2Fcss%3Ffamily%3DArchitects%2BDaughter;aspect=fixed;container=0;" vertex="1" parent="SvNPEjNwzwdlMMC8N83Y-79">
          <mxGeometry x="185" y="5" width="30" height="30" as="geometry" />
        </mxCell>
        <mxCell id="SvNPEjNwzwdlMMC8N83Y-33" value="" style="line;strokeWidth=2;direction=south;html=1;hachureGap=4;fontFamily=Architects Daughter;fontSource=https://fonts.googleapis.com/css?family=Architects+Daughter;strokeColor=#000000;aspect=fixed;container=0;" vertex="1" parent="SvNPEjNwzwdlMMC8N83Y-79">
          <mxGeometry x="195" y="110" width="10" height="30" as="geometry" />
        </mxCell>
        <mxCell id="SvNPEjNwzwdlMMC8N83Y-4" value="" style="shape=trapezoid;perimeter=trapezoidPerimeter;whiteSpace=wrap;html=1;fixedSize=1;rounded=0;labelBackgroundColor=none;strokeColor=#121211;strokeWidth=2;align=center;verticalAlign=middle;fontFamily=Helvetica;fontSize=12;fontColor=default;fillColor=#d5e8d4;direction=west;container=0;aspect=fixed;" vertex="1" parent="SvNPEjNwzwdlMMC8N83Y-79">
          <mxGeometry x="120" y="70" width="160" height="40" as="geometry">
            <mxRectangle x="-1020" y="-650" width="50" height="40" as="alternateBounds" />
          </mxGeometry>
        </mxCell>
        <mxCell id="SvNPEjNwzwdlMMC8N83Y-10" value="&lt;b&gt;&lt;font style=&quot;font-size: 14px;&quot; color=&quot;#000000&quot; face=&quot;Comic Sans MS&quot;&gt;num1, num2, num3&lt;/font&gt;&lt;/b&gt;" style="text;strokeColor=none;align=center;fillColor=none;html=1;verticalAlign=middle;whiteSpace=wrap;rounded=0;fontFamily=Architects Daughter;fontSource=https%3A%2F%2Ffonts.googleapis.com%2Fcss%3Ffamily%3DArchitects%2BDaughter;aspect=fixed;container=0;" vertex="1" parent="SvNPEjNwzwdlMMC8N83Y-79">
          <mxGeometry x="132.5" y="75" width="135" height="30" as="geometry" />
        </mxCell>
        <mxCell id="SvNPEjNwzwdlMMC8N83Y-31" value="" style="line;strokeWidth=2;direction=south;html=1;hachureGap=4;fontFamily=Architects Daughter;fontSource=https://fonts.googleapis.com/css?family=Architects+Daughter;strokeColor=#000000;aspect=fixed;container=0;" vertex="1" parent="SvNPEjNwzwdlMMC8N83Y-79">
          <mxGeometry x="195" y="40" width="10" height="30" as="geometry" />
        </mxCell>
        <mxCell id="SvNPEjNwzwdlMMC8N83Y-48" value="" style="line;strokeWidth=2;direction=south;html=1;hachureGap=4;fontFamily=Architects Daughter;fontSource=https://fonts.googleapis.com/css?family=Architects+Daughter;strokeColor=#000000;aspect=fixed;container=0;" vertex="1" parent="SvNPEjNwzwdlMMC8N83Y-79">
          <mxGeometry x="195" y="470" width="10" height="30" as="geometry" />
        </mxCell>
        <mxCell id="SvNPEjNwzwdlMMC8N83Y-63" value="" style="group" vertex="1" connectable="0" parent="SvNPEjNwzwdlMMC8N83Y-79">
          <mxGeometry y="140" width="540" height="337" as="geometry" />
        </mxCell>
        <mxCell id="SvNPEjNwzwdlMMC8N83Y-17" value="&lt;font color=&quot;#000000&quot; size=&quot;1&quot; face=&quot;Comic Sans MS&quot;&gt;&lt;b style=&quot;font-size: 15px;&quot;&gt;V&lt;/b&gt;&lt;/font&gt;" style="text;strokeColor=none;align=center;fillColor=none;html=1;verticalAlign=middle;whiteSpace=wrap;rounded=0;fontFamily=Architects Daughter;fontSource=https%3A%2F%2Ffonts.googleapis.com%2Fcss%3Ffamily%3DArchitects%2BDaughter;aspect=fixed;container=0;" vertex="1" parent="SvNPEjNwzwdlMMC8N83Y-63">
          <mxGeometry x="50" y="35" width="30" height="30" as="geometry" />
        </mxCell>
        <mxCell id="SvNPEjNwzwdlMMC8N83Y-18" value="&lt;font color=&quot;#000000&quot; size=&quot;1&quot; face=&quot;Comic Sans MS&quot;&gt;&lt;b style=&quot;font-size: 15px;&quot;&gt;V&lt;/b&gt;&lt;/font&gt;" style="text;strokeColor=none;align=center;fillColor=none;html=1;verticalAlign=middle;whiteSpace=wrap;rounded=0;fontFamily=Architects Daughter;fontSource=https://fonts.googleapis.com/css?family=Architects+Daughter;aspect=fixed;container=0;" vertex="1" parent="SvNPEjNwzwdlMMC8N83Y-63">
          <mxGeometry x="225" y="136" width="40" height="30" as="geometry" />
        </mxCell>
        <mxCell id="SvNPEjNwzwdlMMC8N83Y-19" value="&lt;font color=&quot;#000000&quot; size=&quot;1&quot; face=&quot;Comic Sans MS&quot;&gt;&lt;b style=&quot;font-size: 15px;&quot;&gt;F&lt;/b&gt;&lt;/font&gt;" style="text;strokeColor=none;align=center;fillColor=none;html=1;verticalAlign=middle;whiteSpace=wrap;rounded=0;fontFamily=Architects Daughter;fontSource=https://fonts.googleapis.com/css?family=Architects+Daughter;aspect=fixed;container=0;" vertex="1" parent="SvNPEjNwzwdlMMC8N83Y-63">
          <mxGeometry x="460" y="136" width="40" height="30" as="geometry" />
        </mxCell>
        <mxCell id="SvNPEjNwzwdlMMC8N83Y-20" value="&lt;font color=&quot;#000000&quot; size=&quot;1&quot; face=&quot;Comic Sans MS&quot;&gt;&lt;b style=&quot;font-size: 15px;&quot;&gt;F&lt;/b&gt;&lt;/font&gt;" style="text;strokeColor=none;align=center;fillColor=none;html=1;verticalAlign=middle;whiteSpace=wrap;rounded=0;fontFamily=Architects Daughter;fontSource=https://fonts.googleapis.com/css?family=Architects+Daughter;aspect=fixed;container=0;" vertex="1" parent="SvNPEjNwzwdlMMC8N83Y-63">
          <mxGeometry x="330" y="35" width="40" height="30" as="geometry" />
        </mxCell>
        <mxCell id="SvNPEjNwzwdlMMC8N83Y-29" value="" style="line;strokeWidth=2;direction=south;html=1;hachureGap=4;fontFamily=Architects Daughter;fontSource=https://fonts.googleapis.com/css?family=Architects+Daughter;strokeColor=#000000;aspect=fixed;container=0;" vertex="1" parent="SvNPEjNwzwdlMMC8N83Y-63">
          <mxGeometry x="350" y="70" width="10" height="30" as="geometry" />
        </mxCell>
        <mxCell id="SvNPEjNwzwdlMMC8N83Y-30" value="" style="line;strokeWidth=2;direction=south;html=1;hachureGap=4;fontFamily=Architects Daughter;fontSource=https://fonts.googleapis.com/css?family=Architects+Daughter;strokeColor=#000000;aspect=fixed;container=0;" vertex="1" parent="SvNPEjNwzwdlMMC8N83Y-63">
          <mxGeometry x="236" y="160" width="10" height="60" as="geometry" />
        </mxCell>
        <mxCell id="SvNPEjNwzwdlMMC8N83Y-32" value="" style="line;strokeWidth=2;direction=south;html=1;hachureGap=4;fontFamily=Architects Daughter;fontSource=https://fonts.googleapis.com/css?family=Architects+Daughter;strokeColor=#000000;aspect=fixed;container=0;" vertex="1" parent="SvNPEjNwzwdlMMC8N83Y-63">
          <mxGeometry x="57" y="70" width="10" height="50" as="geometry" />
        </mxCell>
        <mxCell id="SvNPEjNwzwdlMMC8N83Y-34" value="" style="line;strokeWidth=2;direction=south;html=1;hachureGap=4;fontFamily=Architects Daughter;fontSource=https://fonts.googleapis.com/css?family=Architects+Daughter;strokeColor=#000000;aspect=fixed;container=0;" vertex="1" parent="SvNPEjNwzwdlMMC8N83Y-63">
          <mxGeometry x="475" y="160" width="10" height="60" as="geometry" />
        </mxCell>
        <mxCell id="SvNPEjNwzwdlMMC8N83Y-35" value="" style="line;strokeWidth=2;direction=south;html=1;hachureGap=4;fontFamily=Architects Daughter;fontSource=https://fonts.googleapis.com/css?family=Architects+Daughter;strokeColor=#000000;aspect=fixed;container=0;" vertex="1" parent="SvNPEjNwzwdlMMC8N83Y-63">
          <mxGeometry x="57" y="150" width="10" height="180" as="geometry" />
        </mxCell>
        <mxCell id="SvNPEjNwzwdlMMC8N83Y-36" value="" style="line;strokeWidth=2;direction=south;html=1;hachureGap=4;fontFamily=Architects Daughter;fontSource=https://fonts.googleapis.com/css?family=Architects+Daughter;strokeColor=#000000;aspect=fixed;container=0;" vertex="1" parent="SvNPEjNwzwdlMMC8N83Y-63">
          <mxGeometry x="236" y="250" width="10" height="40" as="geometry" />
        </mxCell>
        <mxCell id="SvNPEjNwzwdlMMC8N83Y-37" value="" style="line;strokeWidth=2;html=1;perimeter=backbonePerimeter;points=[];outlineConnect=0;hachureGap=4;fontFamily=Architects Daughter;fontSource=https://fonts.googleapis.com/css?family=Architects+Daughter;strokeColor=#000000;aspect=fixed;container=0;" vertex="1" parent="SvNPEjNwzwdlMMC8N83Y-63">
          <mxGeometry x="240" y="156" width="39" height="10" as="geometry" />
        </mxCell>
        <mxCell id="SvNPEjNwzwdlMMC8N83Y-38" value="" style="line;strokeWidth=2;html=1;perimeter=backbonePerimeter;points=[];outlineConnect=0;hachureGap=4;fontFamily=Architects Daughter;fontSource=https://fonts.googleapis.com/css?family=Architects+Daughter;strokeColor=#000000;aspect=fixed;container=0;" vertex="1" parent="SvNPEjNwzwdlMMC8N83Y-63">
          <mxGeometry x="270" y="65" width="84" height="10" as="geometry" />
        </mxCell>
        <mxCell id="SvNPEjNwzwdlMMC8N83Y-39" value="" style="line;strokeWidth=2;html=1;perimeter=backbonePerimeter;points=[];outlineConnect=0;hachureGap=4;fontFamily=Architects Daughter;fontSource=https://fonts.googleapis.com/css?family=Architects+Daughter;strokeColor=#000000;aspect=fixed;container=0;" vertex="1" parent="SvNPEjNwzwdlMMC8N83Y-63">
          <mxGeometry x="430" y="156" width="50" height="10" as="geometry" />
        </mxCell>
        <mxCell id="SvNPEjNwzwdlMMC8N83Y-41" value="" style="line;strokeWidth=2;html=1;perimeter=backbonePerimeter;points=[];outlineConnect=0;hachureGap=4;fontFamily=Architects Daughter;fontSource=https://fonts.googleapis.com/css?family=Architects+Daughter;strokeColor=#000000;aspect=fixed;container=0;" vertex="1" parent="SvNPEjNwzwdlMMC8N83Y-63">
          <mxGeometry x="240" y="286" width="241" height="10" as="geometry" />
        </mxCell>
        <mxCell id="SvNPEjNwzwdlMMC8N83Y-42" value="" style="line;strokeWidth=2;html=1;perimeter=backbonePerimeter;points=[];outlineConnect=0;hachureGap=4;fontFamily=Architects Daughter;fontSource=https://fonts.googleapis.com/css?family=Architects+Daughter;strokeColor=#000000;aspect=fixed;container=0;" vertex="1" parent="SvNPEjNwzwdlMMC8N83Y-63">
          <mxGeometry x="60" y="327" width="296" height="10" as="geometry" />
        </mxCell>
        <mxCell id="SvNPEjNwzwdlMMC8N83Y-43" value="" style="line;strokeWidth=2;html=1;perimeter=backbonePerimeter;points=[];outlineConnect=0;hachureGap=4;fontFamily=Architects Daughter;fontSource=https://fonts.googleapis.com/css?family=Architects+Daughter;strokeColor=#000000;aspect=fixed;container=0;" vertex="1" parent="SvNPEjNwzwdlMMC8N83Y-63">
          <mxGeometry x="60" y="65" width="70" height="10" as="geometry" />
        </mxCell>
        <mxCell id="SvNPEjNwzwdlMMC8N83Y-47" value="" style="line;strokeWidth=2;direction=south;html=1;hachureGap=4;fontFamily=Architects Daughter;fontSource=https://fonts.googleapis.com/css?family=Architects+Daughter;strokeColor=#000000;aspect=fixed;container=0;" vertex="1" parent="SvNPEjNwzwdlMMC8N83Y-63">
          <mxGeometry x="475" y="250" width="10" height="40" as="geometry" />
        </mxCell>
        <mxCell id="SvNPEjNwzwdlMMC8N83Y-49" value="" style="line;strokeWidth=2;direction=south;html=1;hachureGap=4;fontFamily=Architects Daughter;fontSource=https://fonts.googleapis.com/css?family=Architects+Daughter;strokeColor=#000000;aspect=fixed;container=0;" vertex="1" parent="SvNPEjNwzwdlMMC8N83Y-63">
          <mxGeometry x="350" y="290" width="10" height="40" as="geometry" />
        </mxCell>
        <mxCell id="SvNPEjNwzwdlMMC8N83Y-6" value="" style="rhombus;whiteSpace=wrap;html=1;rounded=0;labelBackgroundColor=none;strokeColor=#0F140C;strokeWidth=2;align=center;verticalAlign=middle;fontFamily=Helvetica;fontSize=12;fontColor=default;fillColor=#d5e8d4;aspect=fixed;container=0;" vertex="1" parent="SvNPEjNwzwdlMMC8N83Y-63">
          <mxGeometry x="130" width="140" height="140" as="geometry" />
        </mxCell>
        <mxCell id="SvNPEjNwzwdlMMC8N83Y-15" value="&lt;b style=&quot;font-size: 14px;&quot;&gt;&lt;font style=&quot;font-size: 14px;&quot; color=&quot;#000000&quot; face=&quot;Comic Sans MS&quot;&gt;num1 &amp;gt; num2&lt;/font&gt;&lt;/b&gt;&lt;div style=&quot;font-size: 14px;&quot;&gt;&lt;b&gt;&lt;font style=&quot;font-size: 14px;&quot; color=&quot;#000000&quot; face=&quot;Comic Sans MS&quot;&gt;&amp;amp;&amp;amp;&lt;/font&gt;&lt;/b&gt;&lt;/div&gt;&lt;div style=&quot;font-size: 14px;&quot;&gt;&lt;b style=&quot;&quot;&gt;&lt;font style=&quot;font-size: 14px;&quot; color=&quot;#000000&quot; face=&quot;Comic Sans MS&quot;&gt;num1 &amp;gt; num3&lt;/font&gt;&lt;/b&gt;&lt;/div&gt;" style="text;strokeColor=none;align=center;fillColor=none;html=1;verticalAlign=middle;whiteSpace=wrap;rounded=0;fontFamily=Architects Daughter;fontSource=https%3A%2F%2Ffonts.googleapis.com%2Fcss%3Ffamily%3DArchitects%2BDaughter;aspect=fixed;container=0;" vertex="1" parent="SvNPEjNwzwdlMMC8N83Y-63">
          <mxGeometry x="150" y="45" width="100" height="50" as="geometry" />
        </mxCell>
        <mxCell id="SvNPEjNwzwdlMMC8N83Y-5" value="" style="shape=trapezoid;perimeter=trapezoidPerimeter;whiteSpace=wrap;html=1;fixedSize=1;rounded=0;labelBackgroundColor=none;strokeColor=#0F140C;strokeWidth=2;align=center;verticalAlign=middle;fontFamily=Helvetica;fontSize=12;fontColor=default;fillColor=#d5e8d4;aspect=fixed;container=0;" vertex="1" parent="SvNPEjNwzwdlMMC8N83Y-63">
          <mxGeometry y="120" width="130" height="30" as="geometry" />
        </mxCell>
        <mxCell id="SvNPEjNwzwdlMMC8N83Y-21" value="&lt;font face=&quot;Comic Sans MS&quot; color=&quot;#000000&quot;&gt;&lt;span style=&quot;font-size: 15px;&quot;&gt;&lt;b&gt;maximo&lt;/b&gt;&lt;/span&gt;&lt;/font&gt;" style="text;strokeColor=none;align=center;fillColor=none;html=1;verticalAlign=middle;whiteSpace=wrap;rounded=0;fontFamily=Architects Daughter;fontSource=https%3A%2F%2Ffonts.googleapis.com%2Fcss%3Ffamily%3DArchitects%2BDaughter;aspect=fixed;container=0;" vertex="1" parent="SvNPEjNwzwdlMMC8N83Y-63">
          <mxGeometry x="25" y="120" width="80" height="30" as="geometry" />
        </mxCell>
        <mxCell id="SvNPEjNwzwdlMMC8N83Y-12" value="" style="rhombus;whiteSpace=wrap;html=1;rounded=0;labelBackgroundColor=none;strokeColor=#0F140C;strokeWidth=2;align=center;verticalAlign=middle;fontFamily=Helvetica;fontSize=12;fontColor=default;fillColor=#d5e8d4;aspect=fixed;container=0;" vertex="1" parent="SvNPEjNwzwdlMMC8N83Y-63">
          <mxGeometry x="280" y="100" width="150" height="120" as="geometry" />
        </mxCell>
        <mxCell id="SvNPEjNwzwdlMMC8N83Y-23" value="&lt;div&gt;&lt;b&gt;&lt;font color=&quot;#000000&quot; style=&quot;font-size: 14px;&quot; face=&quot;Comic Sans MS&quot;&gt;num2 &amp;gt; num3&lt;/font&gt;&lt;/b&gt;&lt;/div&gt;" style="text;strokeColor=none;align=center;fillColor=none;html=1;verticalAlign=middle;whiteSpace=wrap;rounded=0;fontFamily=Architects Daughter;fontSource=https%3A%2F%2Ffonts.googleapis.com%2Fcss%3Ffamily%3DArchitects%2BDaughter;aspect=fixed;container=0;" vertex="1" parent="SvNPEjNwzwdlMMC8N83Y-63">
          <mxGeometry x="305" y="145" width="100" height="30" as="geometry" />
        </mxCell>
        <mxCell id="SvNPEjNwzwdlMMC8N83Y-14" value="" style="shape=trapezoid;perimeter=trapezoidPerimeter;whiteSpace=wrap;html=1;fixedSize=1;rounded=0;labelBackgroundColor=none;strokeColor=#0F140C;strokeWidth=2;align=center;verticalAlign=middle;fontFamily=Helvetica;fontSize=12;fontColor=default;fillColor=#d5e8d4;aspect=fixed;container=0;" vertex="1" parent="SvNPEjNwzwdlMMC8N83Y-63">
          <mxGeometry x="185" y="220" width="120" height="30" as="geometry" />
        </mxCell>
        <mxCell id="SvNPEjNwzwdlMMC8N83Y-25" value="&lt;b&gt;&lt;font color=&quot;#000000&quot; style=&quot;font-size: 15px;&quot; face=&quot;Comic Sans MS&quot;&gt;maximo&lt;/font&gt;&lt;/b&gt;" style="text;strokeColor=none;align=center;fillColor=none;html=1;verticalAlign=middle;whiteSpace=wrap;rounded=0;fontFamily=Architects Daughter;fontSource=https%3A%2F%2Ffonts.googleapis.com%2Fcss%3Ffamily%3DArchitects%2BDaughter;aspect=fixed;container=0;" vertex="1" parent="SvNPEjNwzwdlMMC8N83Y-63">
          <mxGeometry x="215" y="220" width="60" height="30" as="geometry" />
        </mxCell>
        <mxCell id="SvNPEjNwzwdlMMC8N83Y-13" value="" style="shape=trapezoid;perimeter=trapezoidPerimeter;whiteSpace=wrap;html=1;fixedSize=1;rounded=0;labelBackgroundColor=none;strokeColor=#0F140C;strokeWidth=2;align=center;verticalAlign=middle;fontFamily=Helvetica;fontSize=12;fontColor=default;fillColor=#d5e8d4;aspect=fixed;container=0;" vertex="1" parent="SvNPEjNwzwdlMMC8N83Y-63">
          <mxGeometry x="420" y="220" width="120" height="30" as="geometry" />
        </mxCell>
        <mxCell id="SvNPEjNwzwdlMMC8N83Y-27" value="&lt;b&gt;&lt;font color=&quot;#000000&quot; style=&quot;font-size: 15px;&quot; face=&quot;Comic Sans MS&quot;&gt;maximo&lt;/font&gt;&lt;/b&gt;" style="text;strokeColor=none;align=center;fillColor=none;html=1;verticalAlign=middle;whiteSpace=wrap;rounded=0;fontFamily=Architects Daughter;fontSource=https%3A%2F%2Ffonts.googleapis.com%2Fcss%3Ffamily%3DArchitects%2BDaughter;aspect=fixed;container=0;" vertex="1" parent="SvNPEjNwzwdlMMC8N83Y-63">
          <mxGeometry x="450" y="220" width="60" height="30" as="geometry" />
        </mxCell>
        <mxCell id="SvNPEjNwzwdlMMC8N83Y-76" value="" style="group;aspect=fixed;" vertex="1" connectable="0" parent="SvNPEjNwzwdlMMC8N83Y-79">
          <mxGeometry x="180" y="500" width="40" height="40" as="geometry" />
        </mxCell>
        <mxCell id="SvNPEjNwzwdlMMC8N83Y-3" value="" style="strokeWidth=2;html=1;shape=mxgraph.flowchart.start_2;whiteSpace=wrap;rounded=0;labelBackgroundColor=none;strokeColor=#000000;align=center;verticalAlign=middle;fontFamily=Helvetica;fontSize=12;fontColor=default;fillColor=#d5e8d4;container=0;aspect=fixed;" vertex="1" parent="SvNPEjNwzwdlMMC8N83Y-76">
          <mxGeometry width="40" height="40" as="geometry" />
        </mxCell>
        <mxCell id="SvNPEjNwzwdlMMC8N83Y-8" value="&lt;b&gt;&lt;font style=&quot;font-size: 17px;&quot; color=&quot;#000000&quot; face=&quot;Comic Sans MS&quot;&gt;F&lt;/font&gt;&lt;/b&gt;" style="text;strokeColor=none;align=center;fillColor=none;html=1;verticalAlign=middle;whiteSpace=wrap;rounded=0;fontFamily=Architects Daughter;fontSource=https://fonts.googleapis.com/css?family=Architects+Daughter;container=0;aspect=fixed;" vertex="1" parent="SvNPEjNwzwdlMMC8N83Y-76">
          <mxGeometry x="10" y="10" width="20" height="20" as="geometry" />
        </mxCell>
        <mxCell id="SvNPEjNwzwdlMMC8N83Y-77" style="edgeStyle=orthogonalEdgeStyle;rounded=0;sketch=1;hachureGap=4;jiggle=2;curveFitting=1;orthogonalLoop=1;jettySize=auto;html=1;exitX=0.75;exitY=1;exitDx=0;exitDy=0;entryX=1;entryY=0.5;entryDx=0;entryDy=0;fontFamily=Architects Daughter;fontSource=https%3A%2F%2Ffonts.googleapis.com%2Fcss%3Ffamily%3DArchitects%2BDaughter;" edge="1" parent="SvNPEjNwzwdlMMC8N83Y-76" source="SvNPEjNwzwdlMMC8N83Y-8" target="SvNPEjNwzwdlMMC8N83Y-8">
          <mxGeometry relative="1" as="geometry" />
        </mxCell>
      </root>
    </mxGraphModel>
  </diagram>
</mxfile>
